<?xml version="1.0" encoding="UTF-8" standalone="no"?>
<svg
   xmlns:dc="http://purl.org/dc/elements/1.1/"
   xmlns:cc="http://creativecommons.org/ns#"
   xmlns:rdf="http://www.w3.org/1999/02/22-rdf-syntax-ns#"
   xmlns:svg="http://www.w3.org/2000/svg"
   xmlns="http://www.w3.org/2000/svg"
   xmlns:sodipodi="http://sodipodi.sourceforge.net/DTD/sodipodi-0.dtd"
   xmlns:inkscape="http://www.inkscape.org/namespaces/inkscape"
   version="1.1"
   width="389px"
   height="199px"
   viewBox="-0.5 -0.5 389 199"
   id="svg38"
   sodipodi:docname="chemicalProcess.svg"
   inkscape:version="1.0.1 (1.0.1+r73)">
  <metadata
     id="metadata42">
    <rdf:RDF>
      <cc:Work
         rdf:about="">
        <dc:format>image/svg+xml</dc:format>
        <dc:type
           rdf:resource="http://purl.org/dc/dcmitype/StillImage" />
      </cc:Work>
    </rdf:RDF>
  </metadata>
  <sodipodi:namedview
     pagecolor="#ffffff"
     bordercolor="#666666"
     borderopacity="1"
     objecttolerance="10"
     gridtolerance="10"
     guidetolerance="10"
     inkscape:pageopacity="0"
     inkscape:pageshadow="2"
     inkscape:window-width="1920"
     inkscape:window-height="1018"
     id="namedview40"
     showgrid="false"
     inkscape:zoom="3.5218509"
     inkscape:cx="194.5"
     inkscape:cy="99.5"
     inkscape:window-x="0"
     inkscape:window-y="27"
     inkscape:window-maximized="1"
     inkscape:current-layer="svg38" />
  <defs
     id="defs2" />
  <g
     id="g36"
     style="fill:none">
    <path
       d="M 127 160 L 127 180 L 227 180 L 227 115 L 280.63 115"
       fill="none"
       stroke="#000000"
       stroke-miterlimit="10"
       pointer-events="stroke"
       id="path4"
       style="fill:none" />
    <path
       d="M 285.88 115 L 278.88 118.5 L 280.63 115 L 278.88 111.5 Z"
       fill="#000000"
       stroke="#000000"
       stroke-miterlimit="10"
       pointer-events="all"
       id="path6"
       style="fill:none" />
    <rect
       x="87"
       y="0"
       width="80"
       height="160"
       fill="none"
       stroke="none"
       pointer-events="all"
       id="rect8"
       style="fill:none" />
    <path
       d="M 136.6 3.98 L 136.6 45.48 C 136.6 47.68 132.3 49.46 127 49.46 C 121.7 49.46 117.4 47.68 117.4 45.48 L 117.4 3.98 C 117.4 1.78 121.7 0 127 0 C 132.3 0 136.6 1.78 136.6 3.98 Z"
       fill="#ffffff"
       stroke="#000000"
       stroke-miterlimit="10"
       pointer-events="all"
       id="path10"
       style="fill:none" />
    <path
       d="M 128.6 53.78 L 167 53.78 L 167 128.46 L 127 160 L 87 128.46 L 87 53.78 L 125.4 53.78 M 117.4 3.98 L 136.6 3.98 M 117.4 45.48 L 136.6 45.48 M 125.4 48.8 L 125.4 94.44 M 128.6 48.8 L 128.6 94.44 M 87 128.46 L 167 128.46"
       fill="#ffffff"
       stroke="#000000"
       stroke-miterlimit="10"
       pointer-events="all"
       id="path12"
       style="fill:none" />
    <ellipse
       cx="135"
       cy="95.27"
       rx="8"
       ry="1.6597510373443982"
       fill="none"
       stroke="#000000"
       pointer-events="all"
       id="ellipse14"
       style="fill:none" />
    <ellipse
       cx="119"
       cy="95.27"
       rx="8"
       ry="1.6597510373443982"
       fill="none"
       stroke="#000000"
       pointer-events="all"
       id="ellipse16"
       style="fill:none" />
    <path
       d="M 7 80 L 80.63 80"
       fill="none"
       stroke="#000000"
       stroke-miterlimit="10"
       pointer-events="stroke"
       id="path18"
       style="fill:none" />
    <path
       d="M 85.88 80 L 78.88 83.5 L 80.63 80 L 78.88 76.5 Z"
       fill="#000000"
       stroke="#000000"
       stroke-miterlimit="10"
       pointer-events="all"
       id="path20"
       style="fill:none" />
    <path
       d="M 294 100 L 294 80 L 173.37 80"
       fill="none"
       stroke="#000000"
       stroke-miterlimit="10"
       pointer-events="stroke"
       id="path22"
       style="fill:none" />
    <path
       d="M 168.12 80 L 175.12 76.5 L 173.37 80 L 175.12 83.5 Z"
       fill="#000000"
       stroke="#000000"
       stroke-miterlimit="10"
       pointer-events="all"
       id="path24"
       style="fill:none" />
    <path
       d="M 380 130 L 380 183.63"
       fill="none"
       stroke="#000000"
       stroke-miterlimit="10"
       pointer-events="stroke"
       id="path26"
       style="fill:none" />
    <path
       d="M 380 188.88 L 376.5 181.88 L 380 183.63 L 383.5 181.88 Z"
       fill="#000000"
       stroke="#000000"
       stroke-miterlimit="10"
       pointer-events="all"
       id="path28"
       style="fill:none" />
    <rect
       x="287"
       y="100"
       width="100"
       height="30"
       fill="none"
       stroke="none"
       pointer-events="all"
       id="rect30"
       style="fill:none" />
    <rect
       x="287"
       y="100"
       width="100"
       height="30"
       fill="#ffffff"
       stroke="#000000"
       pointer-events="all"
       id="rect32"
       style="fill:none" />
    <path
       d="M 337 100 L 337 130 M 360 100 L 360.2 130 M 312 100 L 312 130 M 297 100 L 377 130 M 297 130 L 377 100"
       fill="none"
       stroke="#000000"
       stroke-miterlimit="10"
       pointer-events="all"
       id="path34"
       style="fill:none" />
  </g>
</svg>
